<svg xmlns="http://www.w3.org/2000/svg" viewBox="0 0 474.69 474.64"><g id="Слой_2" data-name="Слой 2"><g id="Слой_1-2" data-name="Слой 1"><path d="M430.4,108.46c.51,7.87.16,15.91,1.71,23.56,2.11,10.35,10.76,15.82,18.91,21.36,3.4,2.31,6.48,5.08,9.8,7.51s3.26,5.47,2.11,8.84c-1.49,4.36-2.88,8.77-4.57,13.06-5.56,14-3.72,26.77,6.21,38.3,2.81,3.25,5.18,6.87,7.83,10.26,3.09,4,3,8,.13,11.9-3.21,4.44-6.45,8.86-9.93,13.08-8.06,9.73-9.05,20.53-5.23,32.14,1.7,5.16,3.3,10.37,5.29,15.42,1.86,4.72.92,8.44-3.08,11.36-4.56,3.32-9.12,6.65-13.85,9.72-13.22,8.59-16.37,21.28-14.9,35.92.11,1.15.4,2.29.44,3.45.45,13-1.21,14.69-11.82,17.3-2.86.71-5.59,2-8.46,2.62-15.4,3.32-23.69,13.39-27.27,28.15-1,4-2.13,7.92-3.44,11.8-1.9,5.65-5.69,7.46-13.52,7.25-6.74-.19-13.5-.25-20.24,0-8.86.37-15,5.6-20,12.31-3.28,4.37-6.19,9-9.38,13.47-4.92,6.84-7.17,7.39-15.14,4.66-6.69-2.3-13.36-4.87-20.25-6.3-11.53-2.39-20.94,2.59-29.42,10a109.92,109.92,0,0,1-9.53,7.18,8.74,8.74,0,0,1-11.07-.22c-3.71-2.78-7.58-5.37-11.07-8.4-11.13-9.64-23.51-11.13-37-6.18-3.57,1.31-7.09,2.75-10.69,3.95-8.48,2.82-9.2,2.9-15.76-5.26-3.31-4.11-6-8.7-9.07-13.05-6.4-9.2-15.52-13-26.4-13.06-6.75-.07-13.52.36-20.23-.16a8.39,8.39,0,0,1-5.78-4.23,79.73,79.73,0,0,1-5.45-15.72c-3.48-15.47-13.66-23.5-28.46-26.82-2.71-.61-5.41-1.32-8.07-2.1-8.5-2.48-10.91-6.3-10.53-15.32.28-6.57.13-13.17-.06-19.76C42.87,337.92,38,331.93,31.64,327c-4.82-3.75-10.12-6.87-15-10.5-5.81-4.29-6.56-6.8-4.36-13.64q2-6.12,4.37-12.09c5.79-14.46,2.5-27.14-7.45-38.5-12-13.7-12.31-15.94-.29-29.68,11-12.54,13.35-26.05,6.92-41.3-1.28-3-2.39-6.16-3.37-9.3-2.45-7.87-1.74-9.83,5.08-14.6,3.81-2.66,7.62-5.32,11.52-7.83,13.12-8.43,16.47-21.12,14.81-35.48C42,98,44.39,95.46,58.34,91.94c1.75-.44,3.42-1.19,5.18-1.56C79.34,87.11,87.86,77,91,61.58a59.7,59.7,0,0,1,2.8-9.43c2.94-7.65,5.75-9.25,13.93-9,6.58.2,13.18.23,19.77.05,9.29-.26,15.65-5.67,20.91-12.66,4.08-5.42,7.92-11,12-16.48,2.42-3.25,5.66-3.61,9.32-2.27,4,1.47,8.16,2.65,12.13,4.26,14.95,6.06,28.4,4,40.45-7,2.81-2.56,6-4.67,9.08-7C235.18-.69,239.13-.69,242.9,2c4.71,3.36,9.31,6.88,13.87,10.44,9.7,7.55,20.34,8.76,31.77,4.83,4.36-1.5,8.72-3,13.08-4.53,8.62-3,10.92-2.16,16.16,5.54,2.5,3.69,5.15,7.28,7.53,11C333.87,42.86,347,45,361.42,43.93c1-.07,1.94-.44,2.93-.51,12.52-1,14.89,1.87,17.45,11.84.86,3.33,2.1,6.57,2.89,9.91,3.55,15,14,22.45,28.19,25.9,2.86.69,5.76,1.3,8.58,2.17C429.57,95.75,432.11,99.69,430.4,108.46Zm-406.51,144c4.76,57.71,28.5,107.15,72.94,145.89s96.67,55.32,155.53,52.19c99.88-5.32,208.05-93.82,197.91-231.26-4-54.62-27-101.05-67.15-138.35-46.31-43-101.77-61.71-164.48-56.58-52.66,4.31-98,26-134.78,64.17C40.12,134,21,188.67,23.89,252.48Z"/><path d="M435,238.72c-.2,109.14-88.95,197.46-198.22,197.24-109.1-.22-197.51-89.15-197.16-198.3.35-108.94,89.08-197.23,198-197C346.9,40.9,435.22,129.51,435,238.72ZM261.74,195.23c0-9.65,0-19.3,0-28.94a68.79,68.79,0,0,0-.57-7.45c-.59-5-3.69-7.39-8.45-7.42-18.8-.09-37.6-.18-56.4,0-6.36.08-9.38,5.43-6.85,11.29a25.23,25.23,0,0,0,3.11,5.1c5.83,7.75,8.15,16.64,8.25,26.13.15,14.3.08,28.61,0,42.91a35.68,35.68,0,0,1-1,8.37c-1.08,4.33-4.46,6-8.33,3.7a31,31,0,0,1-7.87-6.75c-9.69-11.59-16.51-24.92-22.09-38.81S151,175.16,146,161c-2.4-6.79-7.12-9.62-14-9.6-10,0-20-.1-29.95,0-10.25.14-13.13,4.06-11.58,14.26a203.36,203.36,0,0,0,18.19,57.62c16.77,35,37.68,67,69.83,90,19.76,14.17,41.35,23.26,66.27,21.85,16-.91,17.1-5.25,17.07-16.82,0-11.81-.07-23.62.25-35.42.21-7.85,4.78-10.78,12.37-8.33a18.31,18.31,0,0,1,6.27,2.91c6.71,5.65,13.78,11.05,19.61,17.55,9.54,10.62,18.21,22,27.24,33.1a18.38,18.38,0,0,0,16.07,7.2c10.13-.42,20.29,0,30.44-.18,8.74-.11,12.95-5.84,9.54-14A93.25,93.25,0,0,0,373,302.12c-10.32-14.05-21.27-27.64-32-41.4-7.18-9.23-7.2-11.55-.8-21.16,7.82-11.76,16.05-23.29,23.1-35.5a358.8,358.8,0,0,0,19.94-39.37c3.79-9-.06-13.15-10.05-13.3-8.65-.14-17.32.27-25.95-.12-9.58-.44-15.36,3.39-20.12,12-10.58,19.17-22.24,37.76-33.94,56.27-3.41,5.4-8.19,10.05-12.83,14.53a12.07,12.07,0,0,1-13.43,2.56c-4.78-2-5.12-6.53-5.13-11C261.74,215.53,261.76,205.38,261.74,195.23Z"/></g></g></svg>