<svg xmlns="http://www.w3.org/2000/svg"  viewBox="0 0 24 24" width="96px" height="96px"><path d="M19,20H5c-0.552,0-1-0.448-1-1V5c0-0.552,0.448-1,1-1h14c0.552,0,1,0.448,1,1v14C20,19.552,19.552,20,19,20z" opacity=".3"/><path d="M11.621,21v-5.961H9.278v-2.725h2.343v-2.005c0-2.324,1.421-3.591,3.495-3.591c0.699-0.002,1.397,0.034,2.092,0.105v2.43h-1.428c-1.13,0-1.35,0.534-1.35,1.322v1.735h2.7l-0.351,2.725h-2.365V21H11.621z"/><path d="M19,3H5C3.897,3,3,3.897,3,5v14c0,1.103,0.897,2,2,2h14c1.103,0,2-0.897,2-2V5C21,3.897,20.103,3,19,3z M5,19V5h14l0.001,14H5z"/></svg>