<svg xmlns="http://www.w3.org/2000/svg" viewBox="0 0 474.63 474.74"><g id="Слой_2" data-name="Слой 2"><g id="Слой_1-2" data-name="Слой 1"><path d="M109.45,43.28c5,0,11.45.14,17.86,0,9.49-.26,16-5.75,21.32-12.9,4-5.3,7.69-10.79,11.64-16.11,2.52-3.39,5.76-3.75,9.71-2.37,7.46,2.6,14.92,5.42,22.61,7.1,11.5,2.52,21-2.5,29.52-9.72,2.92-2.45,6-4.65,9.07-7,3.94-3,8-3,11.94-.16Q250,7,256.57,12.27c9.82,7.81,20.6,8.89,32.19,5,5.15-1.75,10.36-3.35,15.42-5.31,4.56-1.77,8.17-.7,11,3,3.46,4.63,6.86,9.32,10,14.18,8.86,13.79,22.14,16.11,37,14.6,1.31-.14,2.63-.37,3.95-.47,9.33-.72,13,1.82,15.53,10.76,1.07,3.79,2.2,7.56,3.13,11.38,3.64,15,14.16,22.34,28.36,25.68a84.68,84.68,0,0,1,9.42,2.74c7.62,2.8,9.3,5.75,9,13.84-.25,6.74-.26,13.51,0,20.26.31,9,5.61,15.24,12.46,20.4,5.67,4.26,11.3,8.57,17,12.77,3.13,2.3,3.08,5.28,2,8.44-1.44,4.39-2.93,8.76-4.63,13.05-5.63,14.2-3.78,27.09,6.29,38.76,2.81,3.25,5.24,6.82,7.85,10.25,2.9,3.8,2.82,7.72.11,11.49-3.29,4.58-6.65,9.12-10.22,13.48-7.86,9.62-8.85,20.28-5.14,31.72,1.73,5.33,3.4,10.68,5.43,15.9,1.76,4.54.88,8.14-3,10.95-4.54,3.34-9.08,6.71-13.82,9.75-13.1,8.37-16.41,20.87-15.26,35.35,0,.33.18.64.22,1,2.09,14.22.49,16.84-13,21.2a73.62,73.62,0,0,1-7.1,2c-15.45,3.31-23.56,13.55-27.07,28.3a118,118,0,0,1-3.54,11.77c-2,5.72-5.52,7.29-13.63,7-6.57-.22-13.16-.26-19.73,0-9.06.36-15.33,5.67-20.45,12.54-3.46,4.65-6.49,9.64-10,14.27-4.38,5.8-6.89,6.33-13.71,4-7-2.36-13.95-5.13-21.15-6.65-11.33-2.41-20.59,2.59-29,9.79a119.34,119.34,0,0,1-9.51,7.21c-3.81,2.69-7.69,2.69-11.48-.22-3.4-2.63-7-5-10.25-7.84-11.5-10-24.26-11.82-38.28-6.32-3.38,1.33-6.76,2.68-10.22,3.77-8.29,2.6-8.89,2.87-15.39-5.16-3.43-4.23-6.21-9-9.36-13.46-6.33-9-15.33-12.7-26-12.86-6.91-.1-13.84.3-20.72-.18-1.93-.13-4.57-2.16-5.39-4a87.28,87.28,0,0,1-5.63-16.17C86.76,395,76.58,387.18,62.08,383.75c-2.86-.68-5.74-1.33-8.56-2.18-8.31-2.51-10.65-6.23-10.3-15,.26-6.57.14-13.17,0-19.76C43,338,38,332,31.52,327c-4.83-3.74-10.12-6.88-15-10.53-5.67-4.23-6.35-6.55-4.23-13.22,1.3-4.09,2.71-8.15,4.32-12.11,6.05-14.86,2.55-27.74-7.9-39.25-.11-.12-.25-.22-.35-.34-11.43-14.37-10.47-14.7-.92-27.18,1.41-1.84,2.77-3.73,4.28-5.49,9.09-10.57,9.47-22.38,5.08-34.91-1.64-4.67-3.08-9.41-4.85-14-1.5-3.92-.94-7.19,2.43-9.7,4.78-3.56,9.54-7.19,14.54-10.41,13.29-8.58,16.65-21.33,15-35.92C42,98.05,44.48,95.56,58.15,92c1.59-.42,3.17-.9,4.77-1.26,15.87-3.59,25.32-13.3,28.18-29.4a61.68,61.68,0,0,1,2.18-8.1C95.83,45.38,99.77,42.74,109.45,43.28ZM24,252.45c4.71,57.72,28.43,107.18,72.83,146s96.61,55.36,155.46,52.28c99.58-5.23,208-93.56,198-231.23-4-54.66-27-101.1-67.08-138.42C336.86,38,281.43,19.27,218.74,24.36,166.47,28.6,121.36,50,84.68,87.77,40.47,133.29,21,188.22,24,252.45Z"/><path d="M435,238.72c-.17,109.17-88.87,197.54-198.1,197.35C127.8,435.87,39.39,347,39.72,237.76c.32-109,89-197.29,197.85-197.1C346.8,40.85,435.13,129.48,435,238.72ZM173.37,379.6c.92,3.43,1,7.2,2.84,9.85,3.8,5.63,7.17,6.29,15.29,2.6,10.73-4.86,21.67-9.63,31.51-16,10.61-6.86,19.44-5.85,29.64.62s21.27,11.64,32.22,16.83c6.32,3,10.48,1.8,13.86-3.44a13.69,13.69,0,0,0,2-8.45c-1.79-14.31-3.68-28.63-6.3-42.8-1.35-7.33.27-12.59,5.8-17.56,9.52-8.54,18.6-17.58,27.71-26.56,2.34-2.3,4.78-4.92,5.92-7.88.8-2.11.22-5.47-1-7.49-2.74-4.47-7.43-6.53-12.52-7.34-12.44-2-24.88-4.08-37.37-5.71-6.86-.9-12.37-2.76-14.89-10.12a105.66,105.66,0,0,0-6.68-14.47c-5.19-10-8.68-21-17.38-28.84-3.45-3.12-7.31-3.39-10.52-.06a47.67,47.67,0,0,0-7.73,9.68c-5.1,9.32-10.38,18.65-14.32,28.48-4,10.07-10.54,15.2-21.27,15.13a15.86,15.86,0,0,0-2.49.14c-11.94,1.91-24.26,2.57-35.7,6.11-13.13,4.06-12.75,11.41-5.42,19,9.44,9.81,19,19.56,28.91,28.86,5.57,5.22,7.36,10.54,5.64,18.13C178,351.92,175.91,365.72,173.37,379.6ZM102.08,231.71c0,12.44,4.39,15.56,13,12.36a63.93,63.93,0,0,0,6.84-3c7.54-3.87,15.13-7.66,22.53-11.79,3.78-2.12,7-1.91,10.71.14,8.56,4.77,17.13,9.59,26,13.82,10.64,5.1,17.69,2.22,16.11-10.64-1.15-9.39-2.58-18.79-4.63-28-1.43-6.42.64-10.61,5.3-14.76,7.32-6.51,14.36-13.37,21.15-20.45,6.37-6.63,4.84-11.72-4-14.8a22.44,22.44,0,0,0-3.85-1c-8.86-1.42-17.69-3.07-26.59-4.07-6-.66-10.1-2.69-12.5-8.67a239.1,239.1,0,0,0-10.57-22,48.76,48.76,0,0,0-6.69-9.21c-2.68-3-5.94-2.85-8.65,0a37.24,37.24,0,0,0-5.74,7.47c-3.45,6.26-7.16,12.48-9.61,19.15-3.39,9.21-9.35,13-19,13.38a127.1,127.1,0,0,0-25.55,3.89c-8.92,2.24-11.5,8.38-4.67,15.2,7.06,7,13.93,14.29,21.24,21.07,4.39,4.08,5.67,8.32,4.35,14.19C105,214.16,103.39,224.51,102.08,231.71Zm175.36,2.66c-.51,9.62,5.93,13.15,14.11,9.52,2.13-.94,4.3-1.8,6.37-2.86,7.54-3.87,15.15-7.63,22.53-11.79,3.82-2.15,7.05-1.81,10.7.21,9,5,18,10.22,27.34,14.42,9.08,4.07,15.88,1.34,14.66-9.36a302.46,302.46,0,0,0-4.61-30c-1.42-6.53.8-10.59,5.37-14.72,7.4-6.67,14.6-13.61,21.45-20.86,5.72-6,4.27-11-3.57-14.08a21.13,21.13,0,0,0-4.31-1.22c-10.49-1.71-21-3.18-31.44-5.19a10.27,10.27,0,0,1-6-4.32c-2.52-4.07-4-8.76-6.37-13-4-7.22-8.09-14.45-12.7-21.29-2.34-3.47-6.06-3.25-9-.12a39,39,0,0,0-5.71,7.5c-3.36,6.11-7,12.21-9.35,18.72-3.42,9.39-9.49,13.24-19.38,13.69a127.26,127.26,0,0,0-26.48,4.25c-8.51,2.24-9.89,7.63-4.05,14.07a287.7,287.7,0,0,0,20.43,20.45c5.4,4.85,7.31,9.84,5.46,17.1C280.52,215,279.22,224.74,277.44,234.37Z"/></g></g></svg>