<svg xmlns="http://www.w3.org/2000/svg" viewBox="0 0 474.43 474.54"><g id="Слой_2" data-name="Слой 2"><g id="Слой_1-2" data-name="Слой 1"><path d="M43.09,366.81c0-6.95.11-13.54,0-20.12-.19-8.74-5.2-14.83-11.66-19.84-4.83-3.74-10.13-6.88-15-10.52-5.68-4.23-6.39-6.57-4.27-13.2,1.36-4.24,2.92-8.41,4.53-12.56,5.71-14.69,2.26-27.43-8.07-38.79-11.2-12.34-11.27-14.95-1-27.89,1.44-1.82,2.8-3.71,4.3-5.48,8.7-10.33,9-21.89,5-34.06-1.65-5-3.56-9.92-5.27-14.9-1.17-3.42-.88-6.6,2.25-8.92,4.91-3.65,9.75-7.44,14.89-10.75,13.3-8.57,16.68-21.32,15-35.88-1.84-16,.69-18.34,14.24-21.91,1.59-.42,3.17-.89,4.77-1.25,15.86-3.59,25.35-13.26,28.22-29.36a69.39,69.39,0,0,1,2-7.61c2.52-8.42,6.43-10.94,15.37-10.56,6.25.26,12.52.24,18.77,0,9.67-.29,16.22-5.92,21.62-13.27,3.82-5.21,7.49-10.52,11.35-15.71,2.51-3.37,5.75-3.78,9.7-2.41,7.46,2.6,14.92,5.44,22.61,7.11,11.7,2.55,21.25-2.62,29.9-10,2.9-2.47,6-4.65,9.11-6.92,3.63-2.67,7.46-2.74,11.08-.17C247.32,5.32,252,9,256.74,12.6c9.57,7.39,20.07,8.56,31.33,4.81C293.38,15.63,298.74,14,304,12c4.54-1.75,8.17-.75,11,3,3.55,4.76,7.08,9.56,10.29,14.55C333.89,43,347,45,361.39,43.89c1.48-.12,2.95-.49,4.43-.6,9.38-.75,13,1.77,15.57,10.7,1.07,3.79,2.2,7.56,3.12,11.38,3.63,15,14.13,22.36,28.33,25.7,2.87.67,5.76,1.34,8.57,2.23,7.77,2.49,10.19,6.55,9.85,14.8-.29,6.9-.24,13.84.09,20.75.32,6.6,3.58,12.05,8.57,16.16s10.7,7.79,16,11.77c9.28,7,8.45,8.22,5.53,16.9-2.15,6.38-4.67,12.71-6,19.26-2.18,10.68,2,19.74,8.72,27.86,2.86,3.43,5.39,7.13,8.09,10.68,2.9,3.8,2.87,7.71.16,11.49-3.29,4.57-6.64,9.12-10.21,13.47-7.89,9.61-8.87,20.27-5.19,31.7,1.72,5.33,3.42,10.67,5.43,15.9,1.74,4.5,1,8.13-2.91,11-4.54,3.32-9.08,6.68-13.81,9.74-13.42,8.66-16.61,21.41-15.11,36.28,1.78,17.75-.66,17.38-12.95,21.22-2.35.74-4.7,1.52-7.1,2-15.44,3.31-23.57,13.52-27.1,28.26-1,4-2.17,7.9-3.52,11.77-2,5.67-5.6,7.32-13.61,7.06-6.57-.21-13.16-.26-19.73,0-9.27.37-15.57,5.89-20.78,12.9-3.06,4.12-5.76,8.51-8.75,12.69-5.12,7.16-7.12,7.63-15.48,4.78-6.7-2.28-13.39-4.77-20.28-6.2-11.34-2.35-20.6,2.59-29,9.77-3,2.59-6.25,4.93-9.5,7.23-3.81,2.68-7.69,2.72-11.49-.18s-7.55-5.4-11-8.42c-11.16-9.59-23.55-11-37-6-3.41,1.26-6.79,2.57-10.22,3.76-8.54,3-9.57,3.08-16.14-5.29-3.17-4-5.89-8.41-8.79-12.64-6.45-9.41-15.7-13.23-26.77-13.32-6.74-.05-13.51.31-20.22-.16a7.79,7.79,0,0,1-5.41-4,87,87,0,0,1-5.65-16.16C86.63,394.89,76.45,387.06,62,383.6c-2.87-.68-5.75-1.32-8.57-2.17C45.1,378.94,42.55,375.18,43.09,366.81ZM201.2,25.63c-37.3,3-87.29,27.25-126.38,72.72C35.57,144,19.12,197.62,24.34,257.19,29,310.32,51.25,355.92,90.28,392.5,136,435.32,190.57,454.55,253,450.26c54.56-3.74,101.06-25.89,138.69-65.44,44.14-46.38,63-102.21,58.46-165.86C442.82,116.88,352.47,16.32,201.2,25.63Z"/><path d="M434.77,238.53C434.66,347.66,346,436,236.79,435.89s-197.51-89-197.23-198.11c.27-108.92,88.83-197.21,197.73-197.11C346.48,40.78,434.89,129.36,434.77,238.53ZM218.84,296.26a39.54,39.54,0,0,1-4,5.46c-9.38,9.17-18.52,18.62-28.41,27.2C173,340.56,153,338.81,143,325.44c-9-12.1-8.36-27.55,2.59-39.32,17.75-19.08,36.73-37,55.25-55.41,7-6.91,15.46-9.64,25.28-9.63,8.12,0,14.2,3.73,20.13,8.47,6.79,5.41,14.91,4.8,21.08-1.37,5.7-5.69,6.55-14.29,1.19-20.21-13-14.35-29.58-20.49-48.69-19-18.62,1.47-33.36,10.91-46.21,24-16.44,16.7-33.14,33.14-49.73,49.69-6.71,6.68-11.29,14.66-14.62,23.47-14.44,38.24,11.1,80.39,55.75,82.38,15.83.71,30.81-5.15,42.76-16.21,11.1-10.26,21.63-21.14,32.34-31.82,5.3-5.29,10.44-10.75,16.28-16.78C243,304.42,231.1,303.06,218.84,296.26ZM216.7,170.12c13.31-.85,25.58.63,37.12,7,8.65-8.67,17.21-17.23,25.73-25.81,7.05-7.09,14.82-12.58,25.22-13.73,18-2,33.2,12.78,31.36,31.45-1.07,10.91-7.45,18.93-14.86,26.25-16.53,16.34-32.95,32.8-49.84,48.76-7.94,7.51-18,11-28.87,8.13-5.54-1.5-10.75-4.87-15.58-8.18-9.65-6.61-21.82-2.62-24.91,8.58-1.93,7,1.15,13.45,8.86,19.4,27.13,20.94,60.78,15.17,82.35-5.18,18.71-17.67,36.77-36,54.9-54.3,22.19-22.36,27.25-55.53,8.82-81.18-21.21-29.51-60.58-34.85-89.83-11-8.72,7.11-16.54,15.36-24.56,23.31C233.94,152.22,225.52,161.08,216.7,170.12Z"/></g></g></svg>