<svg xmlns="http://www.w3.org/2000/svg" viewBox="0 0 474.77 474.59"><g id="Слой_2" data-name="Слой 2"><g id="Слой_1-2" data-name="Слой 1"><path d="M198.62,453.84c-8.07,2.52-15.58,4.79-23,7.22-10.3,3.36-11.7,5.19-19.92-6.66-2-2.86-4-5.69-5.85-8.63-8.81-14-22.22-16.55-37.25-14.93-14.79,1.58-16.43-.51-20.12-12.66-1.19-3.91-2.21-7.87-3.42-11.78C85.8,396,79,389.07,68.67,385.75c-4.69-1.5-9.48-2.66-14.16-4.18-8.63-2.8-11.38-3.61-11.2-15.65q.15-9.63-.08-19.26C43,337.92,38,331.84,31.52,326.84c-4.84-3.74-10.13-6.87-15-10.53-5.66-4.22-6.34-6.55-4.21-13.22C13.57,299,15,295,16.6,291c6-14.85,2.54-27.73-7.93-39.23-.11-.12-.25-.21-.36-.34-11.41-14.36-10.46-14.68-.89-27.17,1.41-1.85,2.78-3.73,4.29-5.49,9.09-10.57,9.44-22.38,5.05-34.9-1.63-4.67-3.08-9.4-4.85-14-1.49-3.92-.91-7.18,2.46-9.69,4.78-3.56,9.54-7.18,14.55-10.41,13.28-8.58,16.64-21.33,14.95-35.91-1.82-15.76.59-18.3,14.31-21.85,1.6-.42,3.17-.91,4.78-1.26,15.92-3.55,25.23-13.4,28.16-29.41a72.63,72.63,0,0,1,2-7.62c2.52-8.37,6.47-10.88,15.42-10.5,6.25.27,12.53.22,18.78,0,9.49-.26,16-5.77,21.31-12.91,4-5.3,7.69-10.79,11.65-16.11,2.52-3.38,5.77-3.73,9.72-2.35,7.46,2.61,14.93,5.41,22.62,7.1,11.5,2.51,21-2.52,29.53-9.73,2.91-2.46,6-4.66,9.07-7,3.94-3,8-3,11.94-.14Q250.07,7,256.67,12.28c9.82,7.8,20.61,8.87,32.2,4.94,5.15-1.75,10.36-3.35,15.42-5.31,4.57-1.78,8.17-.67,11,3.06,3.46,4.63,6.86,9.32,10,14.17,8.86,13.79,22.15,16.09,37,14.58,1.32-.14,2.63-.37,4-.47,9.31-.71,13,1.84,15.52,10.78,1.07,3.79,2.2,7.56,3.13,11.38,3.64,15,14.18,22.32,28.38,25.66a81.33,81.33,0,0,1,9.43,2.74c7.63,2.81,9.28,5.73,9,13.84q-.37,10.13,0,20.26c.32,9.05,5.63,15.23,12.48,20.38,5.67,4.27,11.3,8.58,17,12.78,3.13,2.3,3.05,5.29,2,8.44-1.44,4.38-2.93,8.76-4.63,13-5.63,14.2-3.75,27.09,6.31,38.75,2.81,3.25,5.25,6.82,7.85,10.24,2.9,3.81,2.81,7.72.09,11.49-3.29,4.58-6.66,9.11-10.22,13.48-7.85,9.62-8.85,20.27-5.12,31.71,1.69,5.16,3.33,10.36,5.32,15.41,1.93,4.89,1,8.75-3.23,11.78-4.45,3.19-8.86,6.45-13.47,9.39-13.12,8.37-16.4,20.88-15.24,35.35,0,.33.17.64.22,1,2.08,14.15.43,16.84-13.05,21.19a73,73,0,0,1-7.11,2c-15.45,3.31-23.55,13.56-27.06,28.31a118.57,118.57,0,0,1-3.54,11.76c-2,5.75-5.48,7.28-13.65,7-6.57-.22-13.17-.25-19.74,0-9.06.36-15.32,5.68-20.44,12.55-3.27,4.39-6.16,9.06-9.38,13.48-4.8,6.59-7.19,7.16-14.78,4.57-6.84-2.33-13.66-4.95-20.71-6.43-11.35-2.37-20.6,2.62-29,9.81-3,2.59-6.26,4.93-9.52,7.21-3.82,2.69-7.67,2.64-11.49-.24-5.55-4.17-10.87-8.77-16.85-12.23C209.86,457.35,204.2,456,198.62,453.84ZM24.11,251.26c2.47,49.43,25.06,105.92,72.67,147.07,44.63,38.56,96.68,55.3,155.55,52.21,99.59-5.22,208.1-93.51,198-231.15-4-54.64-27-101.06-67.08-138.38C337,37.94,281.52,19.27,218.82,24.35,166.53,28.59,121.4,50,84.7,87.74,40.49,133.25,21,188.15,24.11,251.26Z"/><path d="M435.09,238.8c-.23,109.12-89,197.39-198.3,197.14C127.7,435.68,39.33,346.7,39.73,237.55c.4-108.94,89.2-197.22,198.06-196.9C347.1,41,435.33,129.58,435.09,238.8ZM237.18,276.87c-10.4,0-20.37,0-30.33,0-6.11,0-9.16-3.07-9.11-9.15,0-6.65.1-13.31,0-20-.08-8,2.24-10.47,10.16-10.47h29.47c0-9.38-.11-18,0-26.64a126.43,126.43,0,0,1,.94-16.88c3.1-20.43,13.49-35.21,34-41.17,14.83-4.3,30-2.37,45.05-1.24,4.82.36,7.08,4,7.12,8.75,0,8,.08,16,0,23.95-.07,7.16-2.77,9.83-10,10-5.32.14-10.67-.1-16,.3-6.38.48-12.64,5.63-13,11.86-.64,10.2-.17,20.46-.17,31,10.44,0,20.4,0,30.35,0,5.84,0,9.23,3.37,8.65,9q-1.19,11.63-3.09,23.17c-.93,5.65-3.46,7.39-9.28,7.38-8.77,0-17.54,0-26.49,0v78.4c16.61,0,32.89,0,49.16,0,13.27,0,20.66-7.42,20.67-20.74q0-97.29,0-194.6c0-13.25-7.43-20.61-20.77-20.61q-97.06,0-194.14,0c-13.88,0-21.07,7.29-21.07,21.32q0,96.81,0,193.61c0,13.69,7.27,21,20.86,21q45.91,0,91.83,0c1.62,0,3.23-.14,5.07-.22Z"/></g></g></svg>