<svg xmlns="http://www.w3.org/2000/svg" viewBox="0 0 474.66 474.65"><g id="Слой_2" data-name="Слой 2"><g id="Слой_1-2" data-name="Слой 1"><path d="M43.11,366.91c0-7,.11-13.56,0-20.15-.19-8.73-5.21-14.83-11.67-19.84-4.83-3.74-10.13-6.87-15-10.52-5.68-4.23-6.39-6.57-4.26-13.21,1.35-4.23,2.92-8.4,4.53-12.55,5.71-14.7,2.26-27.44-8.07-38.81-11.21-12.33-11.28-15-1-27.89,1.44-1.82,2.8-3.71,4.3-5.48,8.71-10.33,9-21.9,5-34.07-1.66-5-3.56-9.92-5.28-14.9-1.17-3.42-.87-6.6,2.26-8.92,4.92-3.65,9.75-7.45,14.9-10.76,13.3-8.57,16.68-21.32,15-35.89C41.88,98,44.41,95.59,58,92c1.59-.42,3.17-.89,4.78-1.25C78.61,87.17,88.1,77.5,91,61.39a70,70,0,0,1,2-7.61c2.52-8.42,6.43-10.94,15.38-10.56,6.25.26,12.52.24,18.78.05,9.67-.29,16.22-5.92,21.62-13.27,3.82-5.21,7.5-10.53,11.36-15.71,2.51-3.38,5.75-3.79,9.7-2.41,7.47,2.59,14.93,5.43,22.62,7.1,11.71,2.55,21.26-2.62,29.92-10,2.89-2.47,6-4.66,9.12-6.92,3.63-2.67,7.45-2.74,11.08-.17,4.85,3.45,9.57,7.08,14.28,10.72,9.57,7.39,20.07,8.57,31.33,4.81,5.32-1.78,10.68-3.44,15.9-5.45,4.55-1.76,8.18-.75,11,3,3.56,4.76,7.08,9.57,10.29,14.56C334.05,43,347.16,45,361.56,43.9c1.49-.12,2.95-.49,4.44-.6,9.37-.74,13,1.77,15.57,10.71,1.07,3.78,2.2,7.56,3.12,11.38,3.63,15,14.14,22.36,28.35,25.7,2.87.68,5.76,1.34,8.57,2.24,7.77,2.48,10.2,6.54,9.85,14.8-.29,6.9-.24,13.84.09,20.75.32,6.61,3.59,12.05,8.58,16.16s10.71,7.79,16,11.78c9.38,7.08,8.41,8.25,5.52,16.91-2.13,6.38-4.66,12.7-6,19.26-2.18,10.68,2,19.74,8.73,27.87,2.86,3.43,5.39,7.12,8.1,10.68,2.89,3.8,2.86,7.71.15,11.49-3.29,4.57-6.64,9.12-10.22,13.48-7.88,9.6-8.87,20.27-5.18,31.7,1.71,5.33,3.42,10.68,5.43,15.9,1.74,4.51.95,8.14-2.91,11-4.55,3.33-9.09,6.69-13.83,9.75-13.42,8.66-16.6,21.41-15.11,36.29,1.78,17.75-.66,17.38-12.95,21.22-2.36.74-4.71,1.53-7.11,2-15.46,3.3-23.57,13.54-27.11,28.27-1,4-2.17,7.91-3.52,11.77-2,5.68-5.6,7.32-13.62,7.06-6.57-.21-13.17-.26-19.74,0-9.27.37-15.58,5.9-20.79,12.9-3.06,4.13-5.77,8.52-8.76,12.7-5.11,7.16-7.12,7.62-15.49,4.78-6.69-2.28-13.38-4.77-20.28-6.2-11.35-2.35-20.61,2.59-29,9.77-3,2.59-6.26,4.93-9.51,7.23-3.81,2.69-7.69,2.72-11.49-.18s-7.55-5.41-11.06-8.42c-11.17-9.59-23.56-11-37-6-3.4,1.26-6.79,2.57-10.22,3.76-8.53,3-9.57,3.08-16.15-5.3-3.17-4-5.89-8.41-8.79-12.64-6.46-9.42-15.71-13.23-26.78-13.32-6.75-.05-13.52.32-20.23-.16a7.79,7.79,0,0,1-5.42-4,86.25,86.25,0,0,1-5.64-16.16C86.67,395,76.48,387.15,62,383.69c-2.87-.68-5.75-1.32-8.57-2.17C45.12,379,42.57,375.26,43.11,366.91ZM24,251.44c4.76,102.8,95.69,206.63,227.88,199.25,99.74-5.56,208.55-93.54,198.38-231.4-4-54.63-27-101.06-67.18-138.34-46.32-43-101.78-61.71-164.5-56.56-52.66,4.32-98,26-134.78,64.19C40,134,20.85,188.73,24,251.44Z"/><path d="M435,238.67C434.82,347.81,346.09,436.18,236.82,436,127.71,435.8,39.26,346.91,39.57,237.76c.32-108.95,89-197.25,197.92-197.08C346.75,40.86,435.13,129.47,435,238.67ZM132.28,348.39c8.59-.21,14.65-3.9,21-12.72q33.81-47.25,67.76-94.4a63.84,63.84,0,0,0,11.53-27.75c1.23-7.46,2.63-15.29,6-21.94,12.38-24.65,25.57-48.89,38.57-73.22a42,42,0,0,1,6.71-9.75c2.29-2.33,2.75-4.55.68-6.37a143.22,143.22,0,0,0-15.58-12c-1.12-.74-4.59.4-5.77,1.74-5,5.68-9.29,12.07-14.45,17.63-15.95,17.18-32,34.24-48.42,51-4.56,4.68-9.82,9.3-15.66,12-14.79,6.82-25.39,17.76-34.55,30.75-16.47,23.36-33.37,46.42-49.83,69.79a237.61,237.61,0,0,0-15.76,25.36c-1.62,3.07-1.74,8-.51,11.33,6.76,18.43,20.83,29.5,38.7,36.23C125.71,347.22,129.06,347.63,132.28,348.39Zm207.52.39.62-1.23c12.09.09,30.3-8.76,40.77-20.78,14.54-16.67,13.74-25.2,2.52-40.66-5.27-7.26-11.18-14.05-16.44-21.32q-24.7-34.14-49.07-68.52a60.34,60.34,0,0,0-20.58-18.44c-8.9-4.91-17.56-10-24-18.32-3.81-4.95-6.13-4.43-9.14,1.18-3.61,6.72-6.39,14-10.69,20.23-15.58,22.63-13.24,43.35,3.14,65,20.74,27.42,39.75,56.14,59.62,84.22,3,4.19,6,8.55,10,11.71S335.33,346.52,339.8,348.78ZM208.13,138.27a77.64,77.64,0,0,0,6.73-5.59c4.23-4.44,8.15-9.19,12.38-13.65,2.86-3,2.81-5.82.09-8.72-1.69-1.81-3.57-3.46-5.27-5.28-3.46-3.7-7.4-7.11-10.11-11.31-2.13-3.3-4.49-4.27-7.32-2.6a92.49,92.49,0,0,0-13.19,9.47c-3,2.56-3.79,5.77.21,8.69,1.1.81,1.6,2.45,2.32,3.74C198.58,121.23,203.18,129.44,208.13,138.27Z"/></g></g></svg>