<svg xmlns="http://www.w3.org/2000/svg" viewBox="0 0 474.47 474.75"><g id="Слой_2" data-name="Слой 2"><g id="Слой_1-2" data-name="Слой 1"><path d="M108,43.57c5.93,0,11.88.17,17.81,0,11.87-.42,19.22-7.73,25.38-16.9,2.95-4.39,6.15-8.63,9.35-12.85,2.35-3.08,5.5-3.32,8.94-2.1,4,1.42,8.15,2.67,12.11,4.29C196.47,22,209.94,20.1,222,9.16c2.7-2.44,5.8-4.42,8.66-6.69,4.26-3.37,8.55-3.19,12.77-.08,4.53,3.34,9,6.8,13.41,10.23,9.58,7.38,20.1,8.47,31.34,4.67,5.46-1.84,10.94-3.64,16.37-5.58,3.92-1.41,7.3-.68,9.78,2.56,3.71,4.85,7.35,9.78,10.65,14.91,8.74,13.63,21.91,15.89,36.54,14.64,1.48-.13,3-.47,4.43-.59,9.28-.71,12.93,1.87,15.46,10.86,1.06,3.79,2.2,7.56,3.14,11.38,3.68,15,14.19,22.32,28.42,25.59,2.88.66,5.76,1.36,8.56,2.27,7.88,2.58,10,6.4,9.74,14.89-.22,8-.62,16.26.8,24.08,1.86,10.25,10.61,15.49,18.56,21,3.51,2.43,6.73,5.3,10.17,7.84,3.13,2.31,3,5.32,1.93,8.45-1.44,4.39-2.93,8.76-4.61,13.06-5.46,14-3.91,26.77,6.11,38.32,2.92,3.37,5.42,7.1,8.11,10.67s2.83,7.43.26,11.07c-3.35,4.73-6.83,9.39-10.49,13.9-7.82,9.64-8.78,20.3-5.05,31.73,1.79,5.49,3.58,11,5.55,16.4,1.41,3.89.91,7.22-2.46,9.74-4.78,3.57-9.55,7.17-14.54,10.43-13.36,8.73-16.5,21.46-15,36.36,1.7,16.53-.33,17.56-12.65,20.93-1.89.51-3.78,1.08-5.7,1.54-14.76,3.51-24.82,11.81-28.2,27.21-.81,3.66-2.55,7.12-3.42,10.77-2,8.42-4,9.45-14.46,9.72-6.58.16-13.17-.16-19.74.1-8.85.36-15.06,5.51-20.1,12.21-3.4,4.5-6.36,9.32-9.68,13.87-4.8,6.56-7.14,7.09-14.8,4.48-6.84-2.32-13.67-4.92-20.71-6.39-11.36-2.37-20.57,2.68-28.94,9.85a108,108,0,0,1-10,7.47,8.56,8.56,0,0,1-10.64-.29c-3.86-2.86-7.82-5.6-11.46-8.72-11-9.45-23.29-10.83-36.59-6.06-3.89,1.39-7.66,3.08-11.57,4.39-7.36,2.46-10.11,1.48-14.67-5-3.05-4.34-6-8.72-9-13.11-6.52-9.57-15.84-13.57-27.13-13.61-6.75,0-13.51.28-20.22-.14a7.26,7.26,0,0,1-5.1-3.67,95.82,95.82,0,0,1-5.85-16.61c-3.49-15-13.45-22.91-27.74-26.41-2.7-.66-5.39-1.37-8.07-2.11-9.35-2.57-11.61-6.05-11.15-15.74.3-6.41.1-12.85-.06-19.27-.22-8.53-5.09-14.54-11.37-19.48-4.4-3.48-9.24-6.39-13.83-9.63-7.4-5.23-8.12-7.43-5.22-15.86q1.92-5.62,4.06-11.16c5.58-14.5,2.21-27.17-7.86-38.44-11.54-12.92-11.64-15.44-.91-28.66,1.25-1.54,2.38-3.19,3.67-4.7,9.05-10.59,9.41-22.4,5-34.92-1.6-4.51-2.87-9.14-4.69-13.55s-.9-7.8,2.73-10.5c4.66-3.46,9.33-6.92,14.19-10.06,13.3-8.58,16.57-21.36,14.89-35.94C41.85,97.93,44.38,95.7,57.56,92c3.49-1,7-2,10.42-3.06,10.53-3.24,17.77-9.81,20.82-20.63,1.34-4.75,2.74-9.48,4.1-14.23C95.36,45.56,99.33,42.69,108,43.57Zm-84,207.68c2.46,49.5,25.11,106,72.63,147.13C141.15,437,193.18,453.71,252,450.65c99.42-5.17,208.07-93.4,198-231.18-4-54.46-26.8-100.78-66.68-138.08C337,38.06,281.51,19.25,218.62,24.33c-52.27,4.22-97.38,25.6-134.08,63.37C40.3,133.21,20.91,188.15,23.91,251.25Z"/><path d="M434.78,238.53C434.7,347.7,346.05,436.17,236.85,436S39.3,347.08,39.54,237.9c.24-109,88.76-197.32,197.69-197.27C346.4,40.68,434.87,129.31,434.78,238.53ZM285.81,164c-2.05,0-3.67,0-5.29,0-11.31.07-22.61.09-33.92.23-25.55.31-50.8,2.74-75,11.5-18.66,6.73-35.14,16.73-46.9,33.18C106.94,233.66,104.42,262,107.35,291c2.4,23.75,12.67,45.35,22.31,66.94.73,1.65,1.61,3.6,3,4.48a8.67,8.67,0,0,0,5.88,1.27c1.27-.27,2.5-2.45,3-4s0-3.28-.13-4.93c-1.48-17.11-1.93-34.17,1.58-51.16,5.81-28.05,22.51-46,50.19-52.69a208.83,208.83,0,0,1,38.38-5.47c17.86-.91,35.8-.23,54.26-.23v6.37c0,10.64-.17,21.28-.07,31.92,0,4.64,1.89,8.55,6.55,10.25s8.66.36,12.21-3.2q38.21-38.37,76.52-76.62c7.16-7.18,7.15-11.85,0-19Q355.69,169.39,330.26,144c-8.7-8.71-17.43-17.38-26.08-26.14-3.39-3.43-7.25-4.67-11.78-2.93-4.37,1.67-6.37,5.15-6.58,9.7-.11,2.32,0,4.65,0,7Z"/></g></g></svg>