<svg xmlns="http://www.w3.org/2000/svg" viewBox="0 0 474.49 474.74"><g id="Слой_2" data-name="Слой 2"><g id="Слой_1-2" data-name="Слой 1"><path d="M19.05,277.6c1.16-11.14-4.32-18.45-10.06-25.25-11.61-13.73-12.2-16.1-.46-29.37,11.36-12.82,13.76-26.57,7-42.15A86.32,86.32,0,0,1,12.35,172c-2.42-7.83-1.73-9.75,5.15-14.57,3.8-2.67,7.61-5.33,11.51-7.84C42.13,141.11,45.4,128.4,43.76,114c-1.82-15.9.48-18.6,14.58-22.12,1.74-.44,3.42-1.21,5.18-1.58C79.36,87.09,87.81,76.85,91,61.5a81.23,81.23,0,0,1,2.16-8.1c2.56-8.14,6.44-10.57,15.13-10.24,6.41.25,12.85.2,19.26,0,9.31-.27,15.63-5.73,20.89-12.7,4.09-5.42,7.92-11,12-16.48,2.43-3.25,5.66-3.56,9.32-2.2,3.86,1.44,7.87,2.5,11.67,4.07,15.09,6.26,28.69,4.28,40.88-6.84,2.68-2.44,5.79-4.43,8.67-6.66,4.11-3.17,8.28-3.09,12.36-.11,4.54,3.32,9,6.75,13.43,10.21,9.7,7.57,20.34,8.7,31.76,4.79l16.36-5.62c3.67-1.26,7-.66,9.39,2.46,3.8,5,7.59,10,11,15.28,8.66,13.47,21.73,15.59,36.14,14.52,1.31-.09,2.61-.51,3.93-.57,12.1-.61,13.67,2.36,16.29,11.5,1,3.47,2.16,6.89,3,10.4,3.59,15,14,22.43,28.23,25.84,2.86.69,5.76,1.31,8.57,2.19,8,2.52,10.26,6.51,10,15.2-.27,7.88-.72,16,.69,23.63,1.87,10.21,10.51,15.58,18.46,21.1,3.5,2.44,6.76,5.25,10.21,7.77s3.2,5.49,2,8.85c-1.51,4.37-2.91,8.77-4.58,13.07-5.35,13.82-3.87,26.46,6,37.88,2.92,3.38,5.37,7.14,8.1,10.68,3.08,4,2.91,8,.06,11.91-3.32,4.55-6.73,9.06-10.26,13.44-7.67,9.52-8.58,20.08-5,31.33,1.79,5.65,3.79,11.24,5.75,16.84,1.28,3.66.88,6.92-2.36,9.34-4.91,3.67-9.79,7.4-14.91,10.76-13.19,8.65-16.34,21.32-14.84,36,.15,1.49.5,3,.5,4.45,0,12.51-1.36,13.3-11.46,16.16-3,.85-5.91,2.07-8.94,2.73-15.4,3.33-23.65,13.45-27.22,28.2-1,4-2.14,7.92-3.45,11.79-1.93,5.7-5.62,7.43-13.55,7.2-6.74-.19-13.5-.24-20.23,0-8.86.39-15,5.63-20,12.35-3.27,4.38-6.18,9-9.39,13.47-4.95,6.85-7.08,7.33-15.13,4.58-6.69-2.29-13.37-4.84-20.26-6.27-11.53-2.4-20.91,2.65-29.38,10a107.59,107.59,0,0,1-9.54,7.18c-3.68,2.53-7.45,2.45-11.07-.28s-7.57-5.38-11.06-8.41c-11.13-9.64-23.52-11.08-37-6.14-3.72,1.36-7.37,2.94-11.12,4.2-7.65,2.59-10.36,1.64-15.05-5.11q-4.39-6.33-8.71-12.71c-6.6-9.76-16-13.83-27.53-13.83-6.74,0-13.5.24-20.22-.15a6.69,6.69,0,0,1-4.74-3.42,94.43,94.43,0,0,1-5.92-16.58c-3.53-15.5-13.78-23.4-28.51-26.8-3.18-.73-6.32-1.69-9.41-2.73-7.18-2.44-8.86-3.71-9.12-13.73-.18-6.92.09-13.84-.09-20.76-.21-8.54-5.2-14.49-11.49-19.41C27,323.49,22,320.5,17.32,317.11c-6.78-4.89-7.49-7.24-4.78-15.17,1.33-3.9,2.87-7.73,4.25-11.61A43,43,0,0,0,19,283.26,29.55,29.55,0,0,0,19.05,277.6ZM24,251.44c4.75,102.84,95.65,206.68,227.78,199.32,99.66-5.56,208.47-93.52,198.31-231.45-4-54.65-27-101.09-67.15-138.39-46.29-43-101.73-61.72-164.42-56.58-52.64,4.32-98,26-134.74,64.2C40.07,134,20.88,188.71,24,251.44Z"/><path d="M434.84,238.83c-.22,109.16-89,197.47-198.22,197.22-109-.25-197.41-89.24-197-198.43.39-109,89.14-197.28,198-197A197.7,197.7,0,0,1,434.84,238.83ZM236.92,373.89c22.31-.84,44.61-1,66.79-2.67C337,368.76,361.65,347.4,369,314.86a158.42,158.42,0,0,0,3.64-33.58q.28-51.64-.88-103.27c-.42-17.57-5.31-34.12-16.67-48.15-15.13-18.68-35.65-26.63-58.76-27.06-39.37-.73-78.78-.59-118.16,0-17.74.25-34.41,5.3-48.57,16.84-18,14.7-25.76,34.54-26.83,56.88-2,42.36-2.79,84.79.61,127.12,3,37.7,30,64.72,67.84,67.62C193.05,372.9,215,373.05,236.92,373.89Z"/><path d="M349.37,237.47c-.74,21.15-.75,42.3-2.39,63.33-2.14,27.41-19,44.53-46.53,46.29-26.51,1.69-53.15,1.62-79.73,1.75-15.6.08-31.27-.32-46.81-1.65-27.45-2.36-44.64-19-46.38-46.46-1.69-26.69-1.59-53.51-1.72-80.27-.08-15.44.26-31,1.59-46.32,2.41-27.78,18.9-44.75,46.84-46.55,26.5-1.71,53.15-1.59,79.73-1.72,15.44-.07,30.94.28,46.31,1.61,27.85,2.42,44.54,18.88,46.73,46.73C348.66,195.23,348.64,216.39,349.37,237.47Zm-181.76-.73c-.55,38.13,30.35,69.64,68.88,70.24,38.13.59,69.6-30.18,70.34-68.78.73-38.27-30.45-70.07-69.13-70.49C199.53,167.29,168.16,198.18,167.61,236.74Zm142.26-88.08a16.2,16.2,0,1,0,16,16.35A16.44,16.44,0,0,0,309.87,148.66Z"/><path d="M282.65,237.41a45.43,45.43,0,1,1-45.24-45.52A45.56,45.56,0,0,1,282.65,237.41Z"/></g></g></svg>