<svg xmlns="http://www.w3.org/2000/svg" viewBox="0 0 474.7 474.65"><g id="Слой_2" data-name="Слой 2"><g id="Слой_1-2" data-name="Слой 1"><path d="M430.34,108.66c.54,7.86.27,15.89,1.81,23.54,2.05,10.2,10.58,15.54,18.54,21.05,3.51,2.43,6.74,5.28,10.2,7.8,3.12,2.26,3.17,5.26,2.15,8.42-1.42,4.39-3,8.75-4.65,13-5.62,14.18-3.87,27.08,6.22,38.76,2.91,3.38,5.49,7.05,8.13,10.65a8.52,8.52,0,0,1,.18,10.65c-3.45,4.88-7.08,9.62-10.8,14.29-7.6,9.54-8.53,20.08-4.91,31.32,1.76,5.49,3.56,11,5.57,16.38,1.55,4.12.88,7.53-2.63,10.14-4.65,3.47-9.31,6.95-14.18,10.1-13.4,8.66-16.67,21.4-15.16,36.27,1.8,17.71-.66,17.48-12.89,21.25-2.36.73-4.7,1.53-7.1,2-15.43,3.31-23.62,13.49-27.16,28.24-1,4-2.16,7.9-3.49,11.77-2,5.67-5.62,7.35-13.59,7.12-6.74-.2-13.5-.24-20.24.06-8.86.41-15,5.7-20,12.4-3.38,4.52-6.33,9.35-9.68,13.88-4.61,6.25-7.13,6.81-14.46,4.32-6.84-2.33-13.65-5-20.69-6.49-11.33-2.38-20.62,2.52-29,9.73-3,2.59-6.26,4.93-9.5,7.23-3.8,2.7-7.68,2.78-11.49-.12s-7.56-5.39-11.06-8.41c-11.15-9.63-23.55-11-37-6-3.71,1.37-7.36,2.94-11.11,4.21-7.58,2.54-10.34,1.53-15-5.23q-4.53-6.54-9-13.1c-6.45-9.41-15.68-13.25-26.76-13.35-6.91-.06-13.83.22-20.72-.17a6.68,6.68,0,0,1-4.69-3.49,95.27,95.27,0,0,1-5.9-16.59C86.74,395,76.61,387.18,62.12,383.7c-2.7-.65-5.4-1.35-8.08-2.1-8.94-2.52-11.28-6.14-10.85-15.52.3-6.41.14-12.84,0-19.26-.23-8.91-5.36-15.09-12-20.15-4.35-3.29-9-6.15-13.45-9.32-7.08-5-7.83-7.39-5-15.51,1.28-3.74,2.62-7.47,4.07-11.15,5.7-14.47,2.38-27.15-7.65-38.47-11.82-13.34-12.17-15.95-.42-29.3,11.29-12.82,13.74-26.58,6.88-42.15a76.7,76.7,0,0,1-3-8.39C9.92,164,10.58,162.22,18,157.09c3.55-2.45,7.07-5,10.71-7.26C42.1,141.37,45.49,128.56,43.8,114,42,98.09,44.45,95.6,58,92c1.43-.37,2.85-.78,4.29-1.1C78.32,87.4,88.13,77.83,91,61.47a70.61,70.61,0,0,1,2-7.61c2.52-8.47,6.4-11,15.33-10.62,6.42.25,12.85.19,19.27,0,9.31-.29,15.61-5.79,20.86-12.76,4-5.29,7.69-10.79,11.64-16.12,2.5-3.37,5.74-3.83,9.69-2.46,7.47,2.59,14.92,5.43,22.61,7.13,11.71,2.58,21.26-2.62,29.93-10,3-2.57,6.3-4.86,9.54-7.18a8.32,8.32,0,0,1,10.21-.21q7.33,5.07,14.34,10.63c9.81,7.79,20.57,9,32.17,5,5.31-1.81,10.66-3.48,15.91-5.44,4.15-1.54,7.57-.69,10.16,2.73,3.68,4.87,7.34,9.78,10.64,14.91C334,43,347.13,45,361.54,43.94c1.31-.1,2.61-.5,3.93-.56,12.43-.55,13.4,2.54,16.15,11.11,1.5,4.68,2.68,9.47,4.18,14.16C389.12,79,396.07,85.79,406.46,89c4.69,1.44,9.42,2.76,14.15,4.09C429.25,95.51,432.09,99.6,430.34,108.66Zm-229.48-83C164.07,28.65,114.06,52.9,75,98.37,35.68,144,19.22,197.64,24.43,257.23,29.08,310.37,51.34,356,90.37,392.57c45.82,43,100.63,62.28,163.23,57.74,59.1-4.29,108.17-29.68,146.59-74.63s54.43-97.77,50.18-156.63C443,116.86,352.58,16.37,200.86,25.7Z"/><path d="M435,238.36C435,347.52,346.39,436,237.19,436S39.52,347.24,39.65,238.09c.14-109,88.54-197.27,197.56-197.38S435,129.19,435,238.36ZM138.77,273.28c19.08,0,34.15-14.53,34.19-32.92,0-17.72-15.51-32.3-34.37-32.22-19,.07-34.1,14.38-34,32.39C104.59,259,119.49,273.29,138.77,273.28Zm99.62,0c19.19,0,34.18-14.22,34.41-32.71.22-17.63-15.34-32.39-34.17-32.43-19,0-34.26,14.26-34.26,32.2C204.38,258.89,219.2,273.25,238.39,273.27Zm100.17,0c19,0,34.14-14.68,34.07-33-.06-17.74-15.64-32.24-34.49-32.09-19.09.15-34,14.44-33.93,32.52C304.29,259.11,319.26,273.32,338.56,273.28Z"/></g></g></svg>