<svg xmlns="http://www.w3.org/2000/svg"  viewBox="0 0 24 24" width="96px" height="96px"><path d="M5 15c-1.7 0-3-1.3-3-3 0-1.7 1.3-3 3-3 1.7 0 3 1.3 3 3C8 13.7 6.7 15 5 15zM5 11c-.6 0-1 .4-1 1 0 .6.4 1 1 1 .6 0 1-.4 1-1C6 11.4 5.6 11 5 11zM19 21c-1.7 0-3-1.3-3-3 0-1.7 1.3-3 3-3 1.7 0 3 1.3 3 3C22 19.7 20.7 21 19 21zM19 17c-.6 0-1 .4-1 1 0 .6.4 1 1 1 .6 0 1-.4 1-1C20 17.4 19.6 17 19 17zM19 9c-1.7 0-3-1.3-3-3 0-1.7 1.3-3 3-3 1.7 0 3 1.3 3 3C22 7.7 20.7 9 19 9zM19 5c-.6 0-1 .4-1 1 0 .6.4 1 1 1 .6 0 1-.4 1-1C20 5.4 19.6 5 19 5z"/><path d="M5 10A2 2 0 1 0 5 14 2 2 0 1 0 5 10zM19 16A2 2 0 1 0 19 20 2 2 0 1 0 19 16zM19 4A2 2 0 1 0 19 8 2 2 0 1 0 19 4z" opacity=".3"/><path d="M13.4 13L7 13 7 11 12.6 11 17.3 6.5 18.7 7.9z"/><path d="M14.5 10.9H16.5V17.8H14.5z" transform="rotate(-46.167 15.5 14.399)"/></svg>