<svg xmlns="http://www.w3.org/2000/svg" viewBox="0 0 477.44 476.7"><g id="Слой_2" data-name="Слой 2"><g id="Слой_1-2" data-name="Слой 1"><path d="M238.26,476.69H57.07C27.22,476.69,7.71,458.62.73,433a22.46,22.46,0,0,1-.68-5.9q0-122.76,0-245.52c0-31.27.8-62.54.74-93.81,0-14,6-24.93,15-34.69C25.49,42.46,38,37.27,52.11,36.58c11.46-.55,23-.23,34.43-.46,3.25-.07,4.27,1.07,4.36,4.33.35,12.63.63,25.27,1.62,37.86,1.69,21.44,25.4,36.13,46,29.4,11.46-3.75,19.09-11.08,24-21.64a21.8,21.8,0,0,0,1.92-8.1c.45-12,.75-23.94.81-35.92,0-4.19,1.2-5.83,5.69-5.82q67.63.21,135.27,0c4,0,5.62,1.16,5.62,5.38,0,11,1.17,22,.42,32.91-.83,12.2,11.51,27.84,22.61,32,17.61,6.52,35.12,1.13,45.27-14.75a27.33,27.33,0,0,0,4.14-12.06c1-12.75,1.49-25.55,1.79-38.34.1-4.13,1.32-5.47,5.49-5.31,10.46.41,20.95.3,31.43.59,24.5.68,40.74,13.44,50.38,35.24a32.65,32.65,0,0,1,2.52,12.48c.63,48.39,1.28,96.78,1.46,145.17q.34,96.06,0,192.13c0,19.92-9.34,35.12-25.63,46.29-9.74,6.67-20.75,8.7-32.21,8.72Q328.86,476.77,238.26,476.69Zm.51-311.95q-98.33,0-196.65-.08c-4.63,0-6.1,1.62-6.09,6.07q.34,125.51.55,251c0,10.6,8.07,18.33,18.8,18.43,22.62.2,45.25.41,67.88.4q149.22-.13,298.46-.35c6.81,0,11.61-3.13,15.58-8.32,3.77-4.93,3.42-10.64,3.42-16.26q.09-121.75.11-243.51c0-7.38.07-7.38-7.4-7.38Z"/><path d="M367.62,44.28c-.58,10.76-.83,21.56-1.85,32.28a15.36,15.36,0,0,1-14,13.77c-10.78.75-17.11-2.64-19.68-11.21a41.44,41.44,0,0,1-1.48-11.28c-.19-15.27-.28-30.55-.08-45.83a31.64,31.64,0,0,1,2.13-11.11C335.11,4.67,339.74.57,346.81.07s13.39,1.64,16.77,8.28a33.54,33.54,0,0,1,3.6,12.51c.56,7.76.16,15.59.16,23.4Z"/><path d="M146.17,45.46c0,9.46.28,18.94-.1,28.39-.29,7.36-3.84,13.58-11,15.71s-14.73,2-20.06-4.72c-1.77-2.22-3.48-5.14-3.67-7.85-.83-11.75-1.16-23.53-1.51-35.31-.22-7.31-.21-14.62-.21-21.93,0-13.12,10.29-21.73,23-19.3,7.29,1.4,13.46,9.2,13.73,18.1s.06,17.94.06,26.91Z"/><path d="M135.52,420.35c-12.31-1.61-24.89-2.57-37.15-5.06-13-2.64-12.19-3.79-13.13-14.17-2.52-27.94-5.74-55.81-8.68-83.72-1-9.69-2-19.39-3.12-29.06a7.85,7.85,0,0,0-2.21-4c-4.82-5.1-8.11-10.72-7.83-18.1.27-7.22-.46-14.22,4.65-20.79,2-2.56.23-8.22-.16-12.44-.61-6.58-1.46-13.14-2.3-19.69-.51-3.88,1.85-5.55,5-6.19,8.43-1.72,16.85-4.05,25.37-4.58,18.2-1.13,36.5-2.24,54.69-1.53,16.28.64,32.47,3.68,48.69,5.76,4.75.61,6.74,3,5.89,8.26-1.35,8.3-2.06,16.7-2.8,25.09-.16,1.83,0,4.31,1.15,5.53,8.17,9.08,6.89,19.26,3.34,29.41-1.25,3.57-4.51,6.41-6.75,9.66-1.06,1.55-2.49,3.2-2.68,4.92-1.38,12.3-2.39,24.65-3.7,36.95-1.34,12.49-3,24.94-4.33,37.42-1.26,11.82-2.67,23.64-3.35,35.5-.65,11.23-2.22,14.08-13.31,15.92C160.57,417.49,148.23,418.72,135.52,420.35Z"/><path d="M303.24,343.92c5.53-9.33,10.09-17,14.6-24.68q31.83-54.25,63.67-108.5c3.46-5.89,6.56-6.83,12.24-3.09a128.42,128.42,0,0,1,15.31,11.88c4.62,4.15,5.25,9.07,2.2,14.42-11.17,19.6-22.49,39.11-33.76,58.65q-15.66,27.16-31.35,54.32c-9.48,16.37-18.91,32.78-28.57,49.05-3.94,6.63-12.75,7.39-18.34,1.48Q286.05,383.5,273.52,369c-10.42-12.08-20.57-24.39-30.77-36.65-4.75-5.7-4.94-9.39-.49-15.13,3.87-5,7.94-9.83,12.23-14.46,5.13-5.53,9.29-5.27,14.19.35,10.26,11.77,20.57,23.5,30.81,35.29A62.85,62.85,0,0,1,303.24,343.92Z"/></g></g></svg>